<?xml version="1.0" encoding="utf-8"?>
<!-- Generator: Adobe Illustrator 25.3.1, SVG Export Plug-In . SVG Version: 6.00 Build 0)  -->
<svg version="1.1" id="レイヤー_1" xmlns="http://www.w3.org/2000/svg" xmlns:xlink="http://www.w3.org/1999/xlink" x="0px"
	 y="0px" width="494.3px" height="197.2px" viewBox="0 0 494.3 197.2" style="enable-background:new 0 0 494.3 197.2;"
	 xml:space="preserve">
<style type="text/css">
	.st0{fill:none;stroke:#FF0000;stroke-width:13;stroke-linecap:round;stroke-linejoin:round;stroke-miterlimit:10;}
</style>
<path class="st0" d="M53.1,56.7c1.6-3.7-3.1-8.4-7.1-9.3c-8.9-2-17.9-4-26.8-6c-3.7-0.8-7.6-1.8-10.3-4.4s-3.5-7.7-0.5-10.1
	c1.2-1,2.9-1.4,4.5-1.7c14.5-2.8,29.4-2.6,44.2-2.3c5.5,0.1,11.7,0.5,15.3,4.7c2,2.3,2.8,5.5,2.9,8.6c0.3,8.5-4.3,16.3-8.7,23.6
	c-8.5,14.1-16.9,28.1-25.4,42.2c-1.4,2.4-2.9,4.7-4.7,6.8c-1.6,1.8-3.6,3.4-5.5,5c-5.7,4.7-11.5,9.4-17.2,14.1
	c-1.1-3.7-0.7-7.8,1.1-11.2"/>
<path class="st0" d="M163.4,6.5c-4.3,1.1-7.6,4.3-10.9,7.3c-7.9,7-16.7,12.8-26.1,17.6c-3.4,1.7-6.9,3.3-9.8,5.8
	c-1.9,1.7-3.5,3.8-5.1,5.8C101.2,55.3,87.4,64.6,72,69.5c-1.8-6.1,0.1-13.1,4.6-17.5c4.5-4.4,11.6-6.1,17.6-4.2
	c4.3,7.8,0.2,17.2-3.2,25.4c-6.1,14.6-10,30.1-11.6,45.8c-0.2,1.6-0.1,3.5,1.2,4.3c1,0.6,2.2,0.3,3.3,0c7.3-2,14.8-6.6,21.4-10.2"/>
<path class="st0" d="M124.1,103.4c-0.6,3.2-2.6,6-5.4,7.6c-1.2,0.7-2.5,1.2-3.2,2.4c-0.5,0.9-0.5,2-0.5,3.1c0,3.3,0.1,6.6,0.1,9.9
	c9.3-5.4,16.9-13.8,21.2-23.7c1.5-3.5,2.7-7.4,2-11.2c-0.7-3.8-3.7-7.3-7.6-7.6c-4.1-0.2-7.6,3.4-8.4,7.4c-0.8,4,0.7,8.1,2.9,11.6
	c1.9,3.1,4.5,5.9,7.9,7.2c6.5,2.5,13.5-1.2,19.4-4.9c5.8-3.5,11.5-7,17.3-10.5c-2.5,9.2-9.7,16.2-16,23.3
	c-14.7,16.5-26.1,35.6-37.4,54.5c-1.3,2.2-2.6,4.4-3.9,6.5c-2.1,3.6-4.3,7.8-2.9,11.7c8.1-2.4,14.4-8.9,18.4-16.2
	c4-7.4,6.1-15.6,8.1-23.8c0.3-1.1,0.5-2.2,0.1-3.3c-0.4-1.1-1.5-1.8-2.5-2.4c-3.5-2.1-7.1-4.3-10.6-6.4c12.8-0.4,27.4-6.7,37.1-15"
	/>
<path class="st0" d="M177.8,79.9c-2.1,2.4-5.4,6.4-7.9,8.4"/>
<path class="st0" d="M202.1,79.2c0,2.5-1.5,10.1-1.5,11.2"/>
<path class="st0" d="M193,92.4c-1.1,1.9-1.9,7.7-3.2,9.5c-1.2,1.6-3.4,2.1-5.2,3.1c-2.8,1.6-4.5,4.7-5.2,7.8s-0.6,6.4-0.5,9.6
	c3.8,1.1,7.2-2.2,10.5-4.3c2.5-1.6,5.4-2.5,8-4c4-2.4,6.9-6,10.5-8.9c2.6-2.2,8.2-6.4,11.4-7.7"/>
<path class="st0" d="M212.2,122.6c13.9-1.6,30.4-3.2,44.1-6.5c4.1-1,8.4-2.2,10.9-5.6c1.7-2.3,6-4.4,7.4-7
	c3.8-6.9,9.3-9.4,15.1-14.8c5.1-4.8,9.6-10.3,12.9-16.5c7.3-13.2,18.8-22.7,28.3-34.4c5.7-7,11.1-16.2,20.1-16.8
	c1-0.1,2.1,0,2.9,0.6c1.4,1,1.5,2.9,1.6,4.5c0.2,6.3-2.5,12-5.5,17.2c-1.3,2.3-1.8,4.8-3.7,6.7c-11.8,11-15.4,27.9-18.4,43.7
	c-1,5.2-4.1,9.6-7.6,13.6c-2,2.3-2.6,5.1-4.7,7.4c-3.6,4.1-6.4,10.9-11.9,10.1c-3.5-0.5-5.5-4.1-7-7.2c-4.4-9-9.1-17.9-15.8-25.3
	s-15.5-13.3-25.4-14.7c-3.3-0.5-7-0.3-9.6,1.7s-3.7,6.4-1.4,8.8c1.4,1.4,3.6,1.8,5.6,2c25.1,3.1,50.2,5.5,75.4,7.2
	c11,0.7,11.5,5.3,45-4.8"/>
<path class="st0" d="M354.3,104.9c4.3-5.4,10-9.6,16.4-12.1c0,1.8,0,3.7,0,5.5c-11.9,5.2-20.8,13.2-16.8,24.3
	c6.1-1,9.4-7.7,14.4-11.4c3.1-2.3,7-3.5,10.2-5.8c2.3-1.7,4.1-3.9,6.3-5.6c2.2-1.8,5.1-3.1,7.8-2.4c1.2,6.9-3,13.6-8.1,18.4
	c-2.2,2.1-4.8,5-3.4,7.6c6.2-5,12.9-9.5,19.9-13.4"/>
<path class="st0" d="M429.7,93.4c-14.5,1.8-27.3,13.7-30.2,28c1.4,1.3,3.8,1,5.4-0.2c1.6-1.1,2.7-2.8,4-4.3
	c3.7-4.2,9.2-6.4,13.4-10.1c5.4-4.8,8.3-11.7,11.8-17.9c4.2-7.5,9.6-14.4,14.8-21.3c7.6-9.8,15.1-19.6,22.7-29.4
	c-0.9,6.6-6.5,11.4-11.1,16.3c-3.8,4.1-7.2,8.6-10.5,13.1c-6.2,8.5-12.5,17-18.7,25.5c-2.6,3.5-5.2,7-7,11c-2.4,5-3.5,10.7-3.2,16.2
	c6.6,0.7,12.5-3.9,17.1-8.6c4.6-4.7,9.1-10.1,15.4-12.1c-6.5,5.1-10.5,13.3-10.6,21.6c7.1,1.8,13.3-5.1,17.4-11.2
	c2.6-3.9,5.4-8,5.8-12.7s-2.5-10-7.2-10.5c-4.4-0.5-8.3,3.7-8.6,8c-0.3,4.4,2.2,8.6,5.6,11.4c8.8,7.3,25.2,3.6,31.7-5.8"/>
</svg>
