<?xml version="1.0" encoding="utf-8"?>
<!-- Generator: Adobe Illustrator 25.3.1, SVG Export Plug-In . SVG Version: 6.00 Build 0)  -->
<svg version="1.1" xmlns="http://www.w3.org/2000/svg" xmlns:xlink="http://www.w3.org/1999/xlink" x="0px" y="0px" width="483.7px"
	 height="181.8px" viewBox="0 0 483.7 181.8" style="enable-background:new 0 0 483.7 181.8;" xml:space="preserve">
<g id="レイヤー_1">
	<path d="M11.1,112c0.4-0.6,0.9-1,1.4-1.2c0.5-0.1,1.2-0.2,2-0.2s1.3,0.4,1.5,1.1c0.2,0.7,0.4,1.1,0.6,1.1
		c4.3-3.1,10.4-9.9,18.4-20.4s15.5-22,22.5-34.7c7-12.6,10.4-22.2,10.4-28.6c-0.2-4.5-1.8-8-4.9-10.3c-2.7-1.9-9.8-2.9-21.2-2.9
		c-11.5,0-20.5,1.1-27.3,3.4c-6.7,2.3-10.1,5.2-10.1,8.9c0,2.3,1.7,4.2,5,5.6s6.7,2.3,10.1,2.8c1.4,0.4,3.5,0.7,6.5,1
		c2.9,0.3,5.6,0.6,8,1s4.8,0.9,7.2,1.6c5.4,1.6,8.1,4.7,8.1,9.3l-0.6,0.9c-1.6-2.2-3.2-3.6-4.6-4.1c-1.4-0.5-2.4-0.9-3-1.1
		c-0.5-0.2-1.5-0.4-3-0.7c-1.5-0.2-2.5-0.4-3.2-0.5c-2-0.3-4.8-0.6-8.3-1C8.9,40.8,0,36.4,0,29.9c0-3.4,1.7-6.3,5.1-8.7
		C8.6,18.8,13,17,18.3,16c9.3-1.8,18.4-2.8,27.4-2.8c10.5,0,17.8,1.3,21.9,3.8c1.6,1.1,3.1,2.7,4.3,4.9c1.2,2.2,1.8,4.8,1.8,7.8
		c0,5.7-4.6,16.3-13.9,31.9c-9.3,15.4-19.3,29.8-29.9,43s-17.5,19.8-20.8,19.8c-1.6,0-2.5-0.8-2.5-2.5c0-0.7,0.2-1.4,0.6-2.2
		c0.4-0.8,0.9-1.9,1.5-3.3s1.1-2.3,1.3-2.8C10.3,113.2,10.7,112.6,11.1,112z M93.1,45.2c0,0.5-0.1,1.4-0.3,2.8
		c2.8-2.5,7.1-6.5,12.8-11.8c5.8-5.4,10.6-9.8,14.5-13.3s8.3-7.2,13.1-11C143,4,150.7,0,156.2,0c1.4,0,2,0.4,2,1.3
		c-0.1,1.9-1,3.6-2.6,5.1s-3.5,2.5-5.6,2.9s-4.8,1.6-8.2,3.5s-7.3,4.5-11.8,7.9s-8.5,6.5-12.1,9.4s-8.1,6.6-13.6,11.2
		s-9.6,8-12.2,10.1c-0.7,2.8-3.5,12-8.5,27.6s-7.5,25.5-7.5,29.7c0,5.3,2.6,8,7.8,8c3,0,5.9-0.6,8.6-1.7c2.8-1.1,4.9-2.2,6.5-3.4
		c1.6-1.2,2.5-1.7,2.8-1.7s0.4,0.2,0.4,0.6c0,2.2-2.8,4.5-8.4,7c-5.6,2.4-10,3.6-13.2,3.6c-6.7,0-10-3.5-10-10.4
		c0-6.6,1.8-15.5,5.5-26.8c1.3-3.9,3-8.9,5.1-15.2c2.2-6.3,3.5-10.2,4-11.7c-7.6,5.9-12.9,8.8-15.7,8.8c-2.8,0-4.2-1.1-4.2-3.2
		c0-3.4,3-7.8,9.1-13.3S85.6,41,89.6,41C92,40.9,93.1,42.3,93.1,45.2z M71.2,62.1c3.1,0,8.2-2.9,15.2-8.7c0.7-2,1-3.6,1-4.8
		c0-2-0.9-3-2.6-3c-2.2,0-5.3,2-9.3,6.1s-5.9,7.1-5.9,9.1C69.6,61.6,70.1,62.1,71.2,62.1z"/>
	<path d="M133.1,105c5.4,0,11.9-3,19.4-9.1l2.5,0.7c-9.5,7.9-17.6,11.9-24.5,11.9c-0.8,0-1.4,0-1.7-0.1c-2.6,3.2-5.5,5.8-8.6,7.8
		s-5.8,3-8.1,3c-3.7,0-5.5-2.1-5.5-6.2s3.4-9.6,10.3-16.5c-1.2-2.8-1.7-5.8-1.7-8.8c0-3.1,1.1-5.6,3.3-7.5c2.2-1.9,4.8-2.9,7.8-2.9
		c2.9,0,5.4,1,7.5,2.9c2,1.9,3,4.7,3,8.3c0,5.5-1.8,11-5.4,16.5C131.8,104.9,132.3,105,133.1,105z M112.5,112.1
		c0,1.9,1.3,2.9,3.8,2.9s5.7-2.6,9.6-7.7c-2.6-1.4-4.9-3.7-7-7.1C114.6,104.8,112.5,108.8,112.5,112.1z M128.5,103.5
		c3-5,4.5-9.3,4.5-12.8s-0.9-6.1-2.6-7.8c-1.7-1.7-3.4-2.5-5.1-2.5c-3.4,0-5.1,1.7-5.1,5.2s0.8,6.9,2.3,10.4
		C124.1,99.4,126.1,101.9,128.5,103.5z"/>
	<path d="M128.2,137.6c-2.4-2.4-5.7-3.6-9.7-3.6c-1.3-0.2-1.9-0.7-1.9-1.6c0.1-0.8,0.7-1.2,1.7-1.2c0.2,0,1.7,0.1,4.6,0.4
		c2.5,0,6.2-0.8,11.2-2.5l24.2-33.8c0.2-0.3,0.3-0.6,0.3-0.9s-0.1-0.5-0.4-0.5s-0.6,0.1-0.9,0.4l-7.5,6.2l-0.6-2.2l7.4-6.2
		c3.5-3.5,5.9-5.2,7.2-5.2c0.5,0,1,0.2,1.5,0.7c0.5,0.4,0.7,1,0.7,1.8c0,2.8-7.6,14.6-22.8,35.5c3.9-2.1,6.6-4.3,8.3-6.5
		c0.4-0.5,0.9-0.7,1.4-0.7s0.9,0.3,0.9,1c0,3.2-4.5,6.6-13.5,10.3l-6.7,9.1c1.7,2.1,2.6,5.2,2.6,9.1c0,4-2,8.8-5.9,14.6
		c-4,5.8-8.4,10.5-13.3,14.3s-8.8,5.7-11.6,5.7c-2.8,0-4.2-1.3-4.2-3.8C101.2,176.2,110.2,162.7,128.2,137.6z M131.4,145.7
		c0-1.4-0.1-2.6-0.4-3.8c-15.2,20.6-22.8,31.9-22.8,33.8c0,0.9,0.4,1.3,1.2,1.3c1.9,0,4.7-1.7,8.2-5s6.7-7.5,9.6-12.6
		C129.9,154.4,131.4,149.8,131.4,145.7z M127.3,133.5c1.1,0.5,2,1,2.8,1.4c0.6-1.2,1.3-2.1,2-2.9c-2,0.6-3.6,1-4.6,1.2
		C127.5,133.4,127.4,133.4,127.3,133.5z M171,73.7c0.9,0,1.6,0.3,2.2,0.9c0.5,0.6,0.8,1.4,0.8,2.5s-0.7,2.4-2.2,4.1
		c-1.5,1.6-2.7,2.5-3.8,2.5s-1.8-0.3-2.3-0.9s-0.7-1.4-0.7-2.2c0-0.8,0.8-2.2,2.3-4C168.9,74.6,170.1,73.7,171,73.7z"/>
	<path d="M210,93.2c0.8-0.5,1.4-0.7,1.8-0.7s0.7,0.3,0.7,0.9v0.4c0.4,0-2.2,2.1-7.8,6.4s-11.5,8.5-17.8,12.8s-10.3,6.4-12,6.4
		c-2.8,0-4.2-1.2-4.2-3.5c0-2.8,2.4-8.1,7.2-15.9s8.4-11.7,10.6-11.7c1.6,0,2.5,0.6,2.5,1.9s-2.2,4.7-6.7,10.3
		c-4.4,5.6-6.7,9.6-6.7,12c0,1.4,0.5,2,1.5,2s3.6-1.4,7.6-4.1c7.2-4.8,13.9-9.7,20-14.6L210,93.2z M198,73.7c0.9,0,1.6,0.3,2.2,0.9
		c0.5,0.6,0.8,1.4,0.8,2.5s-0.7,2.4-2.2,4.1c-1.5,1.6-2.7,2.5-3.8,2.5s-1.8-0.3-2.3-0.9s-0.7-1.4-0.7-2.2c0-0.8,0.8-2.2,2.3-4
		C195.8,74.6,197.1,73.7,198,73.7z"/>
	<path d="M324.1,88.2l30.2-2.2c0.8,0,1.2,0.4,1.2,1.2c0,0.8-0.7,1.6-2,2.5s-3.8,1.4-7.6,1.7c-3.8,0.3-11.7,0.6-23.9,0.9
		c-9.9,19.2-16.8,28.9-20.9,28.9c-2.7,0-4.6-1.2-5.8-3.6c-4.3-8.6-9.2-16.1-14.9-22.6l-4.2,4.1c-14.3,13.3-31,20-50,20
		c-4.8,0-9.1-0.4-12.7-1.1c-3.6-0.7-5.4-1.7-5.4-3c0-0.9,0.5-1.3,1.6-1.3c0.7,0,1.5,0.2,2.5,0.6c2.9,1.2,8.4,1.7,16.4,1.7
		c14.4,0,28-5.7,40.9-17c4.6-4.4,7-6.6,7.1-6.7c-9.1-0.7-16.7-1.9-22.9-3.6c-11-3.1-16.5-6.8-16.5-11c0-1.5,0.8-2.7,2.4-3.6
		c1.6-1,3.7-1.5,6.3-1.5c11.5,0,22.4,5.2,32.8,15.5c0.9,0,1.5,0,1.9,0.1c8.6-9.3,19.1-22.4,31.5-39.4c4.3-5.9,8.7-11.6,13-17.1
		c9.1-11.4,16.5-17.1,22.3-17.1c3.8,0,5.7,1.6,5.7,4.9c0,2.2-3.1,10.9-9.4,26C337.2,60.6,330.7,74.8,324.1,88.2z M241.7,77.7
		c0,2.4,4.4,4.7,13.2,7c5,1.2,11.1,2.1,18.3,2.9c-9-8-17.9-12-26.7-12C243.3,75.5,241.7,76.3,241.7,77.7z M299.1,116.4
		c2,0,7.1-8,15.1-23.9c-10.8,0.2-17.6,0.3-20.2,0.3c-2.7,0-6.4-0.1-11.2-0.3c5.7,6.9,10.3,14.2,13.9,21.9
		C297.2,115.8,298.1,116.4,299.1,116.4z M344.5,18.3c-3.2,0-7.4,3.4-12.8,10.2c-5.3,6.8-12.3,16.5-21.1,28.9
		c-8.8,12.5-16.9,22.8-24.4,31c6.8,0.2,12.7,0.3,17.8,0.3s9.2-0.1,12.3-0.3c6.9-13.5,13.6-27.8,20.1-42.9s9.8-23.7,9.8-26
		C346.1,18.7,345.6,18.3,344.5,18.3z"/>
	<path d="M413.5,93.8c-20.4,17-33,25.5-37.8,25.5c-2.8,0-4.2-1.2-4.2-3.5s1-5.1,3.1-8.3c2.1-3.2,4.2-6,6.2-8.5
		c2.1-2.5,3.1-3.9,3.1-4.4s-0.1-0.7-0.4-0.7c-9,6-14.3,9.7-16,11c-1.7,1.4-4.4,3.6-8.3,6.7c-3.8,3.1-6.3,5-7.5,5.8s-2.4,1.2-3.8,1.2
		s-2-0.6-2-1.7c0-1.4,2.7-5.6,8.1-12.8c5.2-7.2,7.8-11.2,7.8-12c0-0.2-0.2-0.3-0.5-0.3s-4.5,2.9-12.5,8.8l-0.6-2.2
		c6.9-5.5,11.5-9,13.9-10.6c2.4-1.5,4.4-2.3,5.9-2.3s2.2,0.7,2.2,2.2c0,1-2.7,4.9-8.2,11.8s-8.2,10.6-8.2,11.2
		c0,0.5,0.2,0.8,0.5,0.8s5.8-3.9,16.5-11.7s17.2-11.7,19.5-11.7c0.7,0,1.3,0.3,2,0.8c0.6,0.5,0.9,1,0.9,1.5c0,1.2-2.6,5-7.7,11.5
		s-7.7,10.2-7.7,11.1s0.6,1.3,1.8,1.3c1.2,0,3.8-1.3,7.8-3.9c7.2-4.7,13.9-9.6,20-14.6l3.2-2.6c0.7-0.5,1.3-0.7,1.9-0.7
		s0.9,0.3,0.9,0.9v0.4H413.5z"/>
	<path d="M453.4,94c-20.1,16.2-32.3,24.4-36.5,24.4c-1.6,0-2.5-1-2.5-2.9s0.7-5.2,2.2-9.7c0-0.1-0.1-0.1-0.3-0.1
		c-11.1,9.2-18.5,13.8-22.2,13.8c-2.5,0-3.8-0.9-3.8-2.8c0-4.1,4.4-10,13.1-17.8s15.7-11.7,21-11.7c0.7,0,1.4,0.5,2.2,1.5
		c2.2-3.3,14.7-21.1,37.4-53.5c2.4-3,4.4-4.5,5.9-4.5s2.2,0.5,2.2,1.5c0,2.4-8.3,13.8-24.9,34.2c-6.2,7.7-11.9,15.8-17,24.1
		c-5.2,8.4-7.8,14.7-7.8,19.1c0,1.8,0.5,2.8,1.6,2.8c1.3,0,3.5-1.1,6.7-3.3c6.6-4.7,12.3-9.1,17.3-13l2.8-2.3
		c0.7-0.5,1.3-0.7,1.9-0.7s0.9,0.3,0.9,1V94H453.4z M421.1,96.7l4.6-7.1c-0.3-0.1-0.6-0.1-0.9-0.1c-4.1,0-9.4,3.1-16,9.3
		c-6.6,6.2-9.9,10.5-9.9,13.1c0,0.7,0.4,1,1.2,1c2.4,0,6.1-2.1,11-6.2C416.1,102.5,419.4,99.2,421.1,96.7z"/>
	<path d="M461.8,105c5.4,0,11.9-3,19.4-9.1l2.5,0.7c-9.5,7.9-17.6,11.9-24.5,11.9c-0.8,0-1.4,0-1.7-0.1c-2.6,3.2-5.5,5.8-8.6,7.8
		s-5.8,3-8.1,3c-3.7,0-5.5-2.1-5.5-6.2s3.4-9.6,10.3-16.5c-1.2-2.8-1.7-5.8-1.7-8.8c0-3.1,1.1-5.6,3.3-7.5c2.2-1.9,4.8-2.9,7.8-2.9
		c2.9,0,5.4,1,7.5,2.9c2,1.9,3,4.7,3,8.3c0,5.5-1.8,11-5.4,16.5C460.5,104.9,461,105,461.8,105z M441.2,112.1c0,1.9,1.3,2.9,3.8,2.9
		s5.7-2.6,9.6-7.7c-2.6-1.4-4.9-3.7-7-7.1C443.3,104.8,441.2,108.8,441.2,112.1z M457.2,103.5c3-5,4.5-9.3,4.5-12.8
		s-0.9-6.1-2.6-7.8c-1.7-1.7-3.4-2.5-5.1-2.5c-3.4,0-5.1,1.7-5.1,5.2s0.8,6.9,2.3,10.4C452.8,99.4,454.8,101.9,457.2,103.5z"/>
</g>
<g id="レイヤー_2">
</g>
</svg>
